<?xml version="1.0" encoding="UTF-8" standalone="no"?>
<!DOCTYPE svg PUBLIC "-//W3C//DTD SVG 1.1//EN" "http://www.w3.org/Graphics/SVG/1.1/DTD/svg11.dtd">
<svg width="100%" height="100%" viewBox="0 0 81 81" version="1.1" xmlns="http://www.w3.org/2000/svg" xmlns:xlink="http://www.w3.org/1999/xlink" xml:space="preserve" xmlns:serif="http://www.serif.com/" style="fill-rule:evenodd;clip-rule:evenodd;stroke-linejoin:round;stroke-miterlimit:2;">
    <g transform="matrix(1,0,0,1,-252.566,-302.155)">
        <g transform="matrix(1,0,0,1,292.611,342.2)">
            <g transform="matrix(1,0,0,1,-40.045,-40.045)">
                <clipPath id="_clip1">
                    <rect x="0" y="0" width="80.09" height="80.09"/>
                </clipPath>
                <g clip-path="url(#_clip1)">
                    <g id="Layer_2">
                        <g id="Layer_1-2">
                            <path d="M10.02,1C10.02,0.448 9.572,0 9.02,0L1,0C0.448,0 0,0.448 0,1L0,9.02C0,9.572 0.448,10.02 1,10.02L9.02,10.02C9.572,10.02 10.02,9.572 10.02,9.02L10.02,1Z" style="fill:rgb(56,101,171);"/>
                            <path d="M38.05,1C38.05,0.448 37.602,0 37.05,0L29.03,0C28.478,0 28.03,0.448 28.03,1L28.03,9.02C28.03,9.572 28.478,10.02 29.03,10.02L37.05,10.02C37.602,10.02 38.05,9.572 38.05,9.02L38.05,1Z" style="fill:rgb(132,175,241);"/>
                            <path d="M52.07,1C52.07,0.448 51.622,0 51.07,0L43.05,0C42.498,0 42.05,0.448 42.05,1L42.05,9.02C42.05,9.572 42.498,10.02 43.05,10.02L51.07,10.02C51.622,10.02 52.07,9.572 52.07,9.02L52.07,1Z" style="fill:rgb(56,101,171);"/>
                            <path d="M66.08,1C66.08,0.448 65.632,0 65.08,0L57.06,0C56.508,0 56.06,0.448 56.06,1L56.06,9.02C56.06,9.572 56.508,10.02 57.06,10.02L65.08,10.02C65.632,10.02 66.08,9.572 66.08,9.02L66.08,1Z" style="fill:rgb(56,101,171);"/>
                            <path d="M80.1,15.02C80.1,14.468 79.652,14.02 79.1,14.02L71.08,14.02C70.528,14.02 70.08,14.468 70.08,15.02L70.08,23.04C70.08,23.592 70.528,24.04 71.08,24.04L79.1,24.04C79.652,24.04 80.1,23.592 80.1,23.04L80.1,15.02Z" style="fill:rgb(56,101,171);"/>
                            <path d="M38.05,29.03C38.05,28.478 37.602,28.03 37.05,28.03L29.03,28.03C28.478,28.03 28.03,28.478 28.03,29.03L28.03,37.05C28.03,37.602 28.478,38.05 29.03,38.05L37.05,38.05C37.602,38.05 38.05,37.602 38.05,37.05L38.05,29.03Z" style="fill:rgb(132,175,241);"/>
                            <path d="M52.07,29.03C52.07,28.478 51.622,28.03 51.07,28.03L43.05,28.03C42.498,28.03 42.05,28.478 42.05,29.03L42.05,37.05C42.05,37.602 42.498,38.05 43.05,38.05L51.07,38.05C51.622,38.05 52.07,37.602 52.07,37.05L52.07,29.03Z" style="fill:rgb(56,101,171);"/>
                            <path d="M66.08,29.03C66.08,28.478 65.632,28.03 65.08,28.03L57.06,28.03C56.508,28.03 56.06,28.478 56.06,29.03L56.06,37.05C56.06,37.602 56.508,38.05 57.06,38.05L65.08,38.05C65.632,38.05 66.08,37.602 66.08,37.05L66.08,29.03Z" style="fill:rgb(132,175,241);"/>
                            <path d="M80.1,29.03C80.1,28.478 79.652,28.03 79.1,28.03L71.08,28.03C70.528,28.03 70.08,28.478 70.08,29.03L70.08,37.05C70.08,37.602 70.528,38.05 71.08,38.05L79.1,38.05C79.652,38.05 80.1,37.602 80.1,37.05L80.1,29.03Z" style="fill:rgb(56,101,171);"/>
                            <path d="M10.02,43.05C10.02,42.498 9.572,42.05 9.02,42.05L1,42.05C0.448,42.05 0,42.498 0,43.05L0,51.07C0,51.622 0.448,52.07 1,52.07L9.02,52.07C9.572,52.07 10.02,51.622 10.02,51.07L10.02,43.05Z" style="fill:rgb(56,101,171);"/>
                            <path d="M52.07,43.05C52.07,42.498 51.622,42.05 51.07,42.05L43.05,42.05C42.498,42.05 42.05,42.498 42.05,43.05L42.05,51.07C42.05,51.622 42.498,52.07 43.05,52.07L51.07,52.07C51.622,52.07 52.07,51.622 52.07,51.07L52.07,43.05Z" style="fill:rgb(132,175,241);"/>
                            <path d="M66.08,43.05C66.08,42.498 65.632,42.05 65.08,42.05L57.06,42.05C56.508,42.05 56.06,42.498 56.06,43.05L56.06,51.07C56.06,51.622 56.508,52.07 57.06,52.07L65.08,52.07C65.632,52.07 66.08,51.622 66.08,51.07L66.08,43.05Z" style="fill:rgb(56,101,171);"/>
                            <path d="M80.1,43.05C80.1,42.498 79.652,42.05 79.1,42.05L71.08,42.05C70.528,42.05 70.08,42.498 70.08,43.05L70.08,51.07C70.08,51.622 70.528,52.07 71.08,52.07L79.1,52.07C79.652,52.07 80.1,51.622 80.1,51.07L80.1,43.05Z" style="fill:rgb(132,175,241);"/>
                            <path d="M24.04,57.06C24.04,56.508 23.592,56.06 23.04,56.06L15.02,56.06C14.468,56.06 14.02,56.508 14.02,57.06L14.02,65.08C14.02,65.632 14.468,66.08 15.02,66.08L23.04,66.08C23.592,66.08 24.04,65.632 24.04,65.08L24.04,57.06Z" style="fill:rgb(56,101,171);"/>
                            <path d="M24.04,71.08C24.04,70.528 23.592,70.08 23.04,70.08L15.02,70.08C14.468,70.08 14.02,70.528 14.02,71.08L14.02,79.1C14.02,79.652 14.468,80.1 15.02,80.1L23.04,80.1C23.592,80.1 24.04,79.652 24.04,79.1L24.04,71.08Z" style="fill:rgb(56,101,171);"/>
                            <path d="M38.05,71.08C38.05,70.528 37.602,70.08 37.05,70.08L29.03,70.08C28.478,70.08 28.03,70.528 28.03,71.08L28.03,79.1C28.03,79.652 28.478,80.1 29.03,80.1L37.05,80.1C37.602,80.1 38.05,79.652 38.05,79.1L38.05,71.08Z" style="fill:rgb(132,175,241);"/>
                            <path d="M52.07,71.08C52.07,70.528 51.622,70.08 51.07,70.08L43.05,70.08C42.498,70.08 42.05,70.528 42.05,71.08L42.05,79.1C42.05,79.652 42.498,80.1 43.05,80.1L51.07,80.1C51.622,80.1 52.07,79.652 52.07,79.1L52.07,71.08Z" style="fill:rgb(132,175,241);"/>
                            <path d="M24.04,1C24.04,0.448 23.592,0 23.04,0L15.02,0C14.468,0 14.02,0.448 14.02,1L14.02,9.02C14.02,9.572 14.468,10.02 15.02,10.02L23.04,10.02C23.592,10.02 24.04,9.572 24.04,9.02L24.04,1Z" style="fill:rgb(56,101,171);"/>
                            <g transform="matrix(-3.82857e-16,1,-1,-3.82857e-16,38.05,28.03)">
                                <path d="M10.02,29.03C10.02,28.478 9.572,28.03 9.02,28.03L1,28.03C0.448,28.03 0,28.478 0,29.03L0,37.05C0,37.602 0.448,38.05 1,38.05L9.02,38.05C9.572,38.05 10.02,37.602 10.02,37.05L10.02,29.03Z" style="fill:rgb(132,175,241);"/>
                            </g>
                            <g transform="matrix(-3.82857e-16,1,-1,-3.82857e-16,136.16,-14.02)">
                                <path d="M80.1,57.06C80.1,56.508 79.652,56.06 79.1,56.06L71.08,56.06C70.528,56.06 70.08,56.508 70.08,57.06L70.08,65.08C70.08,65.632 70.528,66.08 71.08,66.08L79.1,66.08C79.652,66.08 80.1,65.632 80.1,65.08L80.1,57.06Z" style="fill:rgb(56,101,171);"/>
                            </g>
                            <g transform="matrix(-3.82857e-16,1,-1,-3.82857e-16,80.09,-70.08)">
                                <path d="M80.1,1C80.1,0.448 79.652,0 79.1,0L71.08,0C70.528,0 70.08,0.448 70.08,1L70.08,9.02C70.08,9.572 70.528,10.02 71.08,10.02L79.1,10.02C79.652,10.02 80.1,9.572 80.1,9.02L80.1,1Z" style="fill:rgb(56,101,171);"/>
                            </g>
                            <path d="M9,24L1,24C0.451,24 0,23.549 0,23L0,15C-0,14.451 0.451,14 1,14L9,14C9.549,14 10,14.451 10,15L10,23C10,23.549 9.549,24 9,24ZM24,23L24,15C24,14.451 23.549,14 23,14L15,14C14.451,14 14,14.451 14,15L14,23C14,23.549 14.451,24 15,24L23,24C23.549,24 24,23.549 24,23ZM38,23L38,15C38,14.451 37.549,14 37,14L29,14C28.451,14 28,14.451 28,15L28,23C28,23.549 28.451,24 29,24L37,24C37.017,24.001 37.033,24.001 37.05,24.001C37.599,24.001 38.05,23.55 38.05,23.001C38.05,23.001 38.05,23 38.05,23L38,23ZM66,23L66,15C66,14.451 65.549,14 65,14L57,14C56.451,14 56,14.451 56,15L56,23C56,23.549 56.451,24 57,24L65,24C65.027,24.002 65.053,24.003 65.08,24.003C65.629,24.003 66.08,23.552 66.08,23.003C66.08,23.002 66.08,23.001 66.08,23L66,23ZM51.06,24L43,24C42.451,24 42,23.549 42,23L42,15C42,14.451 42.451,14 43,14L51,14C51.549,14 52,14.451 52,15L52,23C52.001,23.527 51.586,23.968 51.06,24Z" style="fill:url(#_Linear2);fill-rule:nonzero;"/>
                            <path d="M24.04,29.03C24.04,28.478 23.592,28.03 23.04,28.03L15.02,28.03C14.468,28.03 14.02,28.478 14.02,29.03L14.02,37.05C14.02,37.602 14.468,38.05 15.02,38.05L23.04,38.05C23.592,38.05 24.04,37.602 24.04,37.05L24.04,29.03Z" style="fill:rgb(56,101,171);"/>
                            <path d="M38.05,57.06C38.05,56.508 37.602,56.06 37.05,56.06L29.03,56.06C28.478,56.06 28.03,56.508 28.03,57.06L28.03,65.08C28.03,65.632 28.478,66.08 29.03,66.08L37.05,66.08C37.602,66.08 38.05,65.632 38.05,65.08L38.05,57.06Z" style="fill:rgb(132,175,241);"/>
                            <path d="M37.05,52.06L29,52.06C28.451,52.06 28,51.609 28,51.06L28,43.06C28,42.511 28.451,42.06 29,42.06L37,42.06C37.549,42.06 38,42.511 38,43.06L38,51.06C38.001,51.59 37.58,52.033 37.05,52.06ZM23.05,52.06L15,52.06C14.451,52.06 14,51.609 14,51.06L14,43.06C14,42.511 14.451,42.06 15,42.06L23,42.06C23.549,42.06 24,42.511 24,43.06L24,51.06C24,51.609 23.549,52.06 23,52.06L23.05,52.06ZM10.05,65.06L10.05,57.06C10.05,56.511 9.599,56.06 9.05,56.06L1,56.06C0.451,56.06 -0,56.511 0,57.06L0,65.06C0,65.609 0.451,66.06 1,66.06L9,66.06C9.541,66.06 9.989,65.621 10,65.08L10.05,65.06ZM52.05,65.06L52.05,57.06C52.05,56.511 51.599,56.06 51.05,56.06L43.05,56.06C42.501,56.06 42.05,56.511 42.05,57.06L42.05,65.06C42.05,65.609 42.501,66.06 43.05,66.06L51.05,66.06C51.595,66.066 52.049,65.625 52.06,65.08L52.05,65.06ZM66.05,65.06L66.05,57.06C66.05,56.511 65.599,56.06 65.05,56.06L57.05,56.06C56.501,56.06 56.05,56.511 56.05,57.06L56.05,65.06C56.05,65.609 56.501,66.06 57.05,66.06L65.05,66.06C65.06,66.06 65.07,66.06 65.08,66.06C65.621,66.06 66.069,65.621 66.08,65.08L66.05,65.06Z" style="fill:url(#_Linear3);fill-rule:nonzero;"/>
                            <path d="M10.02,71.08C10.02,70.528 9.572,70.08 9.02,70.08L1,70.08C0.448,70.08 0,70.528 0,71.08L0,79.1C0,79.652 0.448,80.1 1,80.1L9.02,80.1C9.572,80.1 10.02,79.652 10.02,79.1L10.02,71.08Z" style="fill:rgb(56,101,171);"/>
                            <path d="M66.08,71.08C66.08,70.528 65.632,70.08 65.08,70.08L57.06,70.08C56.508,70.08 56.06,70.528 56.06,71.08L56.06,79.1C56.06,79.652 56.508,80.1 57.06,80.1L65.08,80.1C65.632,80.1 66.08,79.652 66.08,79.1L66.08,71.08Z" style="fill:rgb(56,101,171);"/>
                            <path d="M80.1,71.08C80.1,70.528 79.652,70.08 79.1,70.08L71.08,70.08C70.528,70.08 70.08,70.528 70.08,71.08L70.08,79.1C70.08,79.652 70.528,80.1 71.08,80.1L79.1,80.1C79.652,80.1 80.1,79.652 80.1,79.1L80.1,71.08Z" style="fill:rgb(132,175,241);"/>
                        </g>
                    </g>
                </g>
            </g>
        </g>
    </g>
    <defs>
        <linearGradient id="_Linear2" x1="0" y1="0" x2="1" y2="0" gradientUnits="userSpaceOnUse" gradientTransform="matrix(66.08,0,0,66.08,0,19.02)"><stop offset="0" style="stop-color:rgb(242,204,12);stop-opacity:1"/><stop offset="1" style="stop-color:rgb(255,152,48);stop-opacity:1"/></linearGradient>
        <linearGradient id="_Linear3" x1="0" y1="0" x2="1" y2="0" gradientUnits="userSpaceOnUse" gradientTransform="matrix(4366.57,0,0,4366.57,0,1339.52)"><stop offset="0" style="stop-color:rgb(242,204,12);stop-opacity:1"/><stop offset="1" style="stop-color:rgb(255,152,48);stop-opacity:1"/></linearGradient>
    </defs>
</svg>
